<svg width="18" height="21" viewBox="0 0 18 21" fill="none" xmlns="http://www.w3.org/2000/svg">
<path d="M2 20.335C1.45 20.335 0.979167 20.1391 0.5875 19.7475C0.195833 19.3558 0 18.885 0 18.335V4.33496C0 3.78496 0.195833 3.31413 0.5875 2.92246C0.979167 2.53079 1.45 2.33496 2 2.33496H3V0.334961H5V2.33496H13V0.334961H15V2.33496H16C16.55 2.33496 17.0208 2.53079 17.4125 2.92246C17.8042 3.31413 18 3.78496 18 4.33496V18.335C18 18.885 17.8042 19.3558 17.4125 19.7475C17.0208 20.1391 16.55 20.335 16 20.335H2ZM2 18.335H16V8.33496H2V18.335ZM2 6.33496H16V4.33496H2V6.33496ZM9 12.335C8.71667 12.335 8.47917 12.2391 8.2875 12.0475C8.09583 11.8558 8 11.6183 8 11.335C8 11.0516 8.09583 10.8141 8.2875 10.6225C8.47917 10.4308 8.71667 10.335 9 10.335C9.28333 10.335 9.52083 10.4308 9.7125 10.6225C9.90417 10.8141 10 11.0516 10 11.335C10 11.6183 9.90417 11.8558 9.7125 12.0475C9.52083 12.2391 9.28333 12.335 9 12.335ZM5 12.335C4.71667 12.335 4.47917 12.2391 4.2875 12.0475C4.09583 11.8558 4 11.6183 4 11.335C4 11.0516 4.09583 10.8141 4.2875 10.6225C4.47917 10.4308 4.71667 10.335 5 10.335C5.28333 10.335 5.52083 10.4308 5.7125 10.6225C5.90417 10.8141 6 11.0516 6 11.335C6 11.6183 5.90417 11.8558 5.7125 12.0475C5.52083 12.2391 5.28333 12.335 5 12.335ZM13 12.335C12.7167 12.335 12.4792 12.2391 12.2875 12.0475C12.0958 11.8558 12 11.6183 12 11.335C12 11.0516 12.0958 10.8141 12.2875 10.6225C12.4792 10.4308 12.7167 10.335 13 10.335C13.2833 10.335 13.5208 10.4308 13.7125 10.6225C13.9042 10.8141 14 11.0516 14 11.335C14 11.6183 13.9042 11.8558 13.7125 12.0475C13.5208 12.2391 13.2833 12.335 13 12.335ZM9 16.335C8.71667 16.335 8.47917 16.2391 8.2875 16.0475C8.09583 15.8558 8 15.6183 8 15.335C8 15.0516 8.09583 14.8141 8.2875 14.6225C8.47917 14.4308 8.71667 14.335 9 14.335C9.28333 14.335 9.52083 14.4308 9.7125 14.6225C9.90417 14.8141 10 15.0516 10 15.335C10 15.6183 9.90417 15.8558 9.7125 16.0475C9.52083 16.2391 9.28333 16.335 9 16.335ZM5 16.335C4.71667 16.335 4.47917 16.2391 4.2875 16.0475C4.09583 15.8558 4 15.6183 4 15.335C4 15.0516 4.09583 14.8141 4.2875 14.6225C4.47917 14.4308 4.71667 14.335 5 14.335C5.28333 14.335 5.52083 14.4308 5.7125 14.6225C5.90417 14.8141 6 15.0516 6 15.335C6 15.6183 5.90417 15.8558 5.7125 16.0475C5.52083 16.2391 5.28333 16.335 5 16.335ZM13 16.335C12.7167 16.335 12.4792 16.2391 12.2875 16.0475C12.0958 15.8558 12 15.6183 12 15.335C12 15.0516 12.0958 14.8141 12.2875 14.6225C12.4792 14.4308 12.7167 14.335 13 14.335C13.2833 14.335 13.5208 14.4308 13.7125 14.6225C13.9042 14.8141 14 15.0516 14 15.335C14 15.6183 13.9042 15.8558 13.7125 16.0475C13.5208 16.2391 13.2833 16.335 13 16.335Z" fill="#8E8E93"/>
</svg>
