<svg width="20" height="17" viewBox="0 0 20 17" fill="none" xmlns="http://www.w3.org/2000/svg">
<path d="M1 16.335C0.716667 16.335 0.479167 16.2391 0.2875 16.0475C0.0958333 15.8558 0 15.6183 0 15.335C0 15.1683 0.0333333 15.0141 0.1 14.8725C0.166667 14.7308 0.266667 14.6183 0.4 14.535L9 8.08496V6.33496C9 6.05163 9.1 5.81413 9.3 5.62246C9.5 5.43079 9.74167 5.33496 10.025 5.33496C10.4417 5.33496 10.7917 5.18496 11.075 4.88496C11.3583 4.58496 11.5 4.22663 11.5 3.80996C11.5 3.39329 11.3542 3.04329 11.0625 2.75996C10.7708 2.47663 10.4167 2.33496 10 2.33496C9.58333 2.33496 9.22917 2.48079 8.9375 2.77246C8.64583 3.06413 8.5 3.41829 8.5 3.83496H6.5C6.5 2.86829 6.84167 2.04329 7.525 1.35996C8.20833 0.676627 9.03333 0.334961 10 0.334961C10.9667 0.334961 11.7917 0.672461 12.475 1.34746C13.1583 2.02246 13.5 2.84329 13.5 3.80996C13.5 4.59329 13.2708 5.29329 12.8125 5.90996C12.3542 6.52663 11.75 6.95163 11 7.18496V8.08496L19.6 14.535C19.7333 14.6183 19.8333 14.7308 19.9 14.8725C19.9667 15.0141 20 15.1683 20 15.335C20 15.6183 19.9042 15.8558 19.7125 16.0475C19.5208 16.2391 19.2833 16.335 19 16.335H1ZM4 14.335H16L10 9.83496L4 14.335Z" fill="#8E8E93"/>
</svg>
