<svg width="16" height="17" viewBox="0 0 16 17" fill="none" xmlns="http://www.w3.org/2000/svg">
<path d="M8 8.33496C6.9 8.33496 5.95833 7.94329 5.175 7.15996C4.39167 6.37663 4 5.43496 4 4.33496C4 3.23496 4.39167 2.29329 5.175 1.50996C5.95833 0.726627 6.9 0.334961 8 0.334961C9.1 0.334961 10.0417 0.726627 10.825 1.50996C11.6083 2.29329 12 3.23496 12 4.33496C12 5.43496 11.6083 6.37663 10.825 7.15996C10.0417 7.94329 9.1 8.33496 8 8.33496ZM0 16.335V13.535C0 12.9683 0.145833 12.4475 0.4375 11.9725C0.729167 11.4975 1.11667 11.135 1.6 10.885C2.63333 10.3683 3.68333 9.98079 4.75 9.72246C5.81667 9.46413 6.9 9.33496 8 9.33496C9.1 9.33496 10.1833 9.46413 11.25 9.72246C12.3167 9.98079 13.3667 10.3683 14.4 10.885C14.8833 11.135 15.2708 11.4975 15.5625 11.9725C15.8542 12.4475 16 12.9683 16 13.535V16.335H0ZM2 14.335H14V13.535C14 13.3516 13.9542 13.185 13.8625 13.035C13.7708 12.885 13.65 12.7683 13.5 12.685C12.6 12.235 11.6917 11.8975 10.775 11.6725C9.85833 11.4475 8.93333 11.335 8 11.335C7.06667 11.335 6.14167 11.4475 5.225 11.6725C4.30833 11.8975 3.4 12.235 2.5 12.685C2.35 12.7683 2.22917 12.885 2.1375 13.035C2.04583 13.185 2 13.3516 2 13.535V14.335ZM8 6.33496C8.55 6.33496 9.02083 6.13913 9.4125 5.74746C9.80417 5.35579 10 4.88496 10 4.33496C10 3.78496 9.80417 3.31413 9.4125 2.92246C9.02083 2.53079 8.55 2.33496 8 2.33496C7.45 2.33496 6.97917 2.53079 6.5875 2.92246C6.19583 3.31413 6 3.78496 6 4.33496C6 4.88496 6.19583 5.35579 6.5875 5.74746C6.97917 6.13913 7.45 6.33496 8 6.33496Z" fill="#8E8E93"/>
</svg>
