<svg width="20" height="21" viewBox="0 0 20 21" fill="none" xmlns="http://www.w3.org/2000/svg">
<path d="M9.4 7.33496H17.4C16.95 6.18496 16.2625 5.19746 15.3375 4.37246C14.4125 3.54746 13.35 2.96829 12.15 2.63496L9.4 7.33496ZM7.1 9.33496L11.1 2.43496C10.9167 2.40163 10.7333 2.37663 10.55 2.35996C10.3667 2.34329 10.1833 2.33496 10 2.33496C8.9 2.33496 7.875 2.54329 6.925 2.95996C5.975 3.37663 5.13333 3.93496 4.4 4.63496L7.1 9.33496ZM2.25 12.335H7.7L3.7 5.43496C3.16667 6.11829 2.75 6.87246 2.45 7.69746C2.15 8.52246 2 9.40163 2 10.335C2 10.685 2.02083 11.0225 2.0625 11.3475C2.10417 11.6725 2.16667 12.0016 2.25 12.335ZM7.85 18.035L10.55 13.335H2.6C3.05 14.485 3.7375 15.4725 4.6625 16.2975C5.5875 17.1225 6.65 17.7016 7.85 18.035ZM10 18.335C11.1 18.335 12.125 18.1266 13.075 17.71C14.025 17.2933 14.8667 16.735 15.6 16.035L12.9 11.335L8.9 18.235C9.08333 18.2683 9.2625 18.2933 9.4375 18.31C9.6125 18.3266 9.8 18.335 10 18.335ZM16.3 15.235C16.8333 14.5516 17.25 13.7975 17.55 12.9725C17.85 12.1475 18 11.2683 18 10.335C18 9.98496 17.9792 9.64746 17.9375 9.32246C17.8958 8.99746 17.8333 8.66829 17.75 8.33496H12.3L16.3 15.235ZM10 20.335C8.63333 20.335 7.34167 20.0725 6.125 19.5475C4.90833 19.0225 3.84583 18.3058 2.9375 17.3975C2.02917 16.4891 1.3125 15.4266 0.7875 14.21C0.2625 12.9933 0 11.7016 0 10.335C0 8.95163 0.2625 7.65579 0.7875 6.44746C1.3125 5.23913 2.02917 4.18079 2.9375 3.27246C3.84583 2.36413 4.90833 1.64746 6.125 1.12246C7.34167 0.59746 8.63333 0.334961 10 0.334961C11.3833 0.334961 12.6792 0.59746 13.8875 1.12246C15.0958 1.64746 16.1542 2.36413 17.0625 3.27246C17.9708 4.18079 18.6875 5.23913 19.2125 6.44746C19.7375 7.65579 20 8.95163 20 10.335C20 11.7016 19.7375 12.9933 19.2125 14.21C18.6875 15.4266 17.9708 16.4891 17.0625 17.3975C16.1542 18.3058 15.0958 19.0225 13.8875 19.5475C12.6792 20.0725 11.3833 20.335 10 20.335Z" fill="#8E8E93"/>
</svg>
